<svg width="168" height="168" viewBox="0 0 168 168" fill="none" xmlns="http://www.w3.org/2000/svg">
<g filter="url(#filter0_d_1_2382)">
<rect x="52" y="48" width="64" height="64" rx="32" fill="#1B68FF" shape-rendering="crispEdges"/>
<path d="M94.6664 77.3333C94.6664 71.4423 89.8908 66.6666 83.9997 66.6666C78.1087 66.6666 73.333 71.4423 73.333 77.3333" stroke="white" stroke-width="2.5" stroke-linecap="round" stroke-linejoin="round"/>
<path d="M76.3337 78.6666H71.667C71.1147 78.6666 70.667 79.1143 70.667 79.6666V86.9999C70.667 87.5522 71.1147 87.9999 71.667 87.9999H76.3337C76.8859 87.9999 77.3337 87.5522 77.3337 86.9999V79.6666C77.3337 79.1143 76.8859 78.6666 76.3337 78.6666Z" stroke="white" stroke-width="2.5" stroke-linecap="round" stroke-linejoin="round"/>
<path d="M90.6667 84V80.6666C90.6667 79.7238 90.6667 79.2524 90.9596 78.9595C91.2525 78.6666 91.7239 78.6666 92.6667 78.6666H95.3333C96.2761 78.6666 96.7475 78.6666 97.0404 78.9595C97.3333 79.2524 97.3333 79.7238 97.3333 80.6666V88C97.3333 89.7777 96.2667 93.3333 92 93.3333C90.9913 93.3333 90.1119 93.3333 89.3333 93.3333M84 93.3333C84.4246 93.3333 84.8594 93.3333 85.3333 93.3333H84Z" stroke="white" stroke-width="2.5" stroke-linecap="round" stroke-linejoin="round"/>
</g>
<defs>
<filter id="filter0_d_1_2382" x="0" y="0" width="168" height="168" filterUnits="userSpaceOnUse" color-interpolation-filters="sRGB">
<feFlood flood-opacity="0" result="BackgroundImageFix"/>
<feColorMatrix in="SourceAlpha" type="matrix" values="0 0 0 0 0 0 0 0 0 0 0 0 0 0 0 0 0 0 127 0" result="hardAlpha"/>
<feOffset dy="4"/>
<feGaussianBlur stdDeviation="26"/>
<feComposite in2="hardAlpha" operator="out"/>
<feColorMatrix type="matrix" values="0 0 0 0 0.45098 0 0 0 0 0.482353 0 0 0 0 0.490196 0 0 0 0.1 0"/>
<feBlend mode="normal" in2="BackgroundImageFix" result="effect1_dropShadow_1_2382"/>
<feBlend mode="normal" in="SourceGraphic" in2="effect1_dropShadow_1_2382" result="shape"/>
</filter>
</defs>
</svg>
