<svg width="56" height="56" viewBox="0 0 56 56" fill="none" xmlns="http://www.w3.org/2000/svg">
<g filter="url(#filter0_d_1_350)">
<rect x="4" y="3" width="48" height="48" rx="16" fill="white" shape-rendering="crispEdges"/>
<rect x="4.5" y="3.5" width="47" height="47" rx="15.5" stroke="#BBBDBF" shape-rendering="crispEdges"/>
<g clip-path="url(#clip0_1_350)">
<g clip-path="url(#clip1_1_350)">
<path d="M20.5 28.5V24C20.5 19.8579 23.8579 16.5 28 16.5C32.1421 16.5 35.5 19.8579 35.5 24V33C35 34.25 32.8 36.75 28 36.75" stroke="#1B68FF" stroke-width="3" stroke-linecap="round"/>
<path d="M25 30C25.75 30.75 27.85 31.8 30.25 30" stroke="#1B68FF" stroke-width="3" stroke-linecap="round" stroke-linejoin="round"/>
<path d="M20.5 24C20.5 23.1716 19.8284 22.5 19 22.5C18.1716 22.5 17.5 23.1716 17.5 24V27C17.5 27.8284 18.1716 28.5 19 28.5C19.8284 28.5 20.5 27.8284 20.5 27V24Z" fill="#1B68FF"/>
<path d="M38.5 24C38.5 23.1716 37.8284 22.5 37 22.5C36.1716 22.5 35.5 23.1716 35.5 24V27C35.5 27.8284 36.1716 28.5 37 28.5C37.8284 28.5 38.5 27.8284 38.5 27V24Z" fill="#1B68FF"/>
</g>
</g>
</g>
<defs>
<filter id="filter0_d_1_350" x="0" y="0" width="56" height="56" filterUnits="userSpaceOnUse" color-interpolation-filters="sRGB">
<feFlood flood-opacity="0" result="BackgroundImageFix"/>
<feColorMatrix in="SourceAlpha" type="matrix" values="0 0 0 0 0 0 0 0 0 0 0 0 0 0 0 0 0 0 127 0" result="hardAlpha"/>
<feOffset dy="1"/>
<feGaussianBlur stdDeviation="2"/>
<feComposite in2="hardAlpha" operator="out"/>
<feColorMatrix type="matrix" values="0 0 0 0 0 0 0 0 0 0 0 0 0 0 0 0 0 0 0.1 0"/>
<feBlend mode="normal" in2="BackgroundImageFix" result="effect1_dropShadow_1_350"/>
<feBlend mode="normal" in="SourceGraphic" in2="effect1_dropShadow_1_350" result="shape"/>
</filter>
<clipPath id="clip0_1_350">
<rect width="24" height="24" fill="white" transform="translate(16 15)"/>
</clipPath>
<clipPath id="clip1_1_350">
<rect width="24" height="24" fill="white" transform="translate(16 15)"/>
</clipPath>
</defs>
</svg>
