<svg width="92" height="41" viewBox="0 0 92 41" fill="none" xmlns="http://www.w3.org/2000/svg">
<g clip-path="url(#clip0_1_359)">
<g clip-path="url(#clip1_1_359)">
<path d="M89.7371 21.3896C88.7528 20.1352 87.4846 19.1191 86.0314 18.4205C84.5781 17.7218 82.9791 17.3595 81.3586 17.3617C74.3073 17.3617 68.8719 24.1131 71.4846 31.3449C71.9819 32.7076 72.7847 33.9452 73.8344 34.9676C74.8841 35.9901 76.1543 36.7717 77.5529 37.2558C84.9738 39.8047 91.899 34.5077 91.899 27.6335C91.9034 25.3736 91.1393 23.1759 89.7259 21.3842L89.7371 21.3896ZM81.3586 34.0956C80.0486 34.0935 78.7687 33.713 77.6807 33.0022C76.5926 32.2914 75.7451 31.2823 75.2453 30.1022C74.7456 28.9223 74.616 27.6244 74.8729 26.3727C75.1298 25.1209 75.7617 23.9714 76.6887 23.0695C77.6158 22.1677 78.7963 21.5538 80.0813 21.3056C81.3662 21.0573 82.6978 21.1858 83.9079 21.6747C85.1178 22.1638 86.152 22.9913 86.8795 24.0529C87.6071 25.1145 87.9953 26.3624 87.9953 27.6389C87.9953 28.4878 87.8236 29.3282 87.4899 30.1123C87.1563 30.8964 86.6672 31.6087 86.0508 32.2084C85.4344 32.8081 84.7026 33.2835 83.8975 33.6073C83.0923 33.9311 82.2296 34.0971 81.3586 34.0956Z" fill="#1B68FF"/>
<path d="M33.3524 17.9376C31.8934 18.438 30.5719 19.2583 29.4896 20.3351C28.4074 21.412 27.5935 22.7167 27.1105 24.1486C24.2794 32.5347 32.151 40.1813 40.7508 37.395C42.192 36.9287 43.5063 36.1513 44.5959 35.1207C45.6854 34.0901 46.522 32.8329 47.0432 31.4432C48.4433 27.6581 47.6369 23.9958 45.5507 21.346C42.9212 18.0085 38.2474 16.2783 33.3524 17.9348V17.9376ZM41.9522 31.3476L41.9382 31.364C41.7002 31.6069 41.4482 31.8361 41.1933 32.0544C40.9385 32.2727 40.7257 32.4365 40.4848 32.6166L40.4541 32.6439C39.6951 33.2115 38.9306 33.7027 38.2922 34.183C38.2825 34.1886 38.2739 34.196 38.2669 34.2048C38.1565 34.2795 38.0509 34.3606 37.9506 34.4477C37.9399 34.4532 37.9304 34.4607 37.9226 34.4696C37.6306 34.6987 37.3673 34.9607 37.1384 35.25C36.916 34.9672 36.6593 34.7114 36.3739 34.4887C36.3602 34.4728 36.3441 34.4591 36.3263 34.4477C36.2255 34.3603 36.1191 34.2812 36.0127 34.2048L35.9819 34.183C35.2931 33.6645 34.4529 33.1324 33.6408 32.5047L33.568 32.4501C33.5555 32.4375 33.5413 32.4266 33.526 32.4174C33.414 32.3273 33.2992 32.24 33.19 32.1444C32.8435 31.8605 32.5153 31.5561 32.2071 31.233C32.2062 31.2276 32.2062 31.2221 32.2071 31.2166C31.5711 30.4828 31.1161 29.6169 30.8768 28.6851C30.6375 27.7535 30.6204 26.7807 30.8266 25.8415C31.0329 24.9023 31.4571 24.0216 32.0667 23.2669C32.6764 22.5123 33.4553 21.9037 34.3437 21.4879C34.3801 21.4715 34.4137 21.4524 34.4501 21.4388C35.2749 21.0878 36.1634 20.9014 37.0633 20.8907C37.9632 20.8799 38.8561 21.0449 39.6896 21.376C40.6306 21.7694 41.462 22.3751 42.1154 23.1434C42.7689 23.9115 43.2254 24.8201 43.4475 25.7942C43.6697 26.7683 43.6509 27.7798 43.3929 28.7454C43.1348 29.711 42.6449 30.6029 41.9635 31.3476" fill="#1B68FF"/>
<path d="M83.7949 9.77793C84.1519 10.1282 84.5763 10.4064 85.0438 10.5966C85.5131 10.7893 86.0173 10.8886 86.5266 10.8886C87.0358 10.8886 87.54 10.7893 88.0094 10.5966C88.4768 10.4064 88.9013 10.1282 89.2583 9.77793C89.6139 9.42311 89.8931 9.00245 90.0793 8.54078C90.2653 8.07911 90.3547 7.58578 90.342 7.08991C90.3458 6.59466 90.2506 6.10343 90.0619 5.64356C89.8721 5.18529 89.5914 4.768 89.2358 4.41553C88.8777 4.06658 88.4536 3.78856 87.9869 3.59685C87.52 3.40828 87.0191 3.31204 86.5137 3.31374C86.0082 3.31544 85.5081 3.41505 85.0425 3.60676C84.5769 3.79847 84.155 4.07847 83.8014 4.43047C83.4477 4.78248 83.1695 5.19947 82.9827 5.6572C82.7923 6.11465 82.6971 6.60445 82.7027 7.0981C82.69 7.59397 82.7794 8.0873 82.9655 8.54896C83.1517 9.01063 83.4307 9.43129 83.7865 9.78612L83.7949 9.77793ZM86.5027 4.1399C88.1437 4.1399 89.4067 5.43616 89.4067 7.0981C89.4067 8.76003 88.1437 10.0645 86.5027 10.0645C84.8618 10.0645 83.652 8.74638 83.652 7.09537C83.652 5.44434 84.8729 4.13172 86.5111 4.13172" fill="#1B68FF"/>
<path d="M86.0688 7.56746H86.5784L87.2393 8.96742H88.2418L87.5054 7.60295C87.47 7.52439 87.4239 7.45093 87.3681 7.38463V7.3628C87.5795 7.29783 87.7633 7.16755 87.8918 6.99165C88.0152 6.81312 88.0769 6.60091 88.0682 6.38583C88.0759 6.22227 88.0478 6.059 87.9857 5.90684C87.9237 5.75469 87.8291 5.61713 87.7083 5.50331C87.5876 5.38949 87.4433 5.30201 87.2852 5.24667C87.1272 5.19134 86.9587 5.16941 86.7912 5.18236H85.1726V8.97834H86.0772L86.0688 7.56746ZM86.0688 5.81547H86.5784C86.6554 5.80757 86.7332 5.81787 86.8053 5.84549C86.8761 5.87278 86.9401 5.91468 86.9928 5.96829C87.0461 6.02162 87.0863 6.08599 87.1104 6.1566C87.136 6.22653 87.1437 6.30144 87.1329 6.37491C87.1415 6.4504 87.1329 6.52681 87.1077 6.59868C87.0816 6.6698 87.0405 6.73484 86.9873 6.78972C86.9336 6.84346 86.8686 6.88534 86.7969 6.91251C86.7238 6.93976 86.6453 6.95094 86.5673 6.94526H86.0688V5.81547Z" fill="#1B68FF"/>
<path d="M4.98244 6.06108H3.29944V13.1727H4.98244V6.06108Z" fill="#1B68FF"/>
<path d="M15.9458 9.4259H17.7911L19.7934 13.1755H21.832L19.5442 9.02747C20.0803 8.78271 20.5293 8.38758 20.8337 7.89266C21.1379 7.39773 21.2838 6.82556 21.2524 6.24939C21.2524 5.22603 20.9303 4.44828 20.2975 3.93523C19.6646 3.42219 18.7937 3.17113 17.6848 3.17113H14.1507V13.1755H15.9486L15.9458 9.4259ZM15.9458 4.66932H17.5112C18.0299 4.63044 18.5456 4.77691 18.9617 5.08139C19.125 5.23684 19.2518 5.4249 19.3336 5.63263C19.4153 5.84036 19.4498 6.06288 19.435 6.28486C19.4471 6.50527 19.4103 6.72563 19.3272 6.93095C19.2441 7.13627 19.1166 7.32172 18.9533 7.47469C18.6313 7.76123 18.13 7.90586 17.4664 7.90586H15.9458V4.66932Z" fill="#1B68FF"/>
<path d="M29.6673 11.5627H24.8451V8.75457H28.5304V7.14176H24.8451V4.78121H29.5385V3.17113H23.0754V13.1755H29.6673V11.5627Z" fill="#1B68FF"/>
<path d="M37.6595 11.5627H32.8345V8.75457H36.5225V7.14176H32.8345V4.78121H37.5307V3.17113H31.0675V13.1755H37.6595V11.5627Z" fill="#1B68FF"/>
<path d="M4.98244 3.17113H3.29944V4.35822L4.98244 5.90008V3.17113Z" fill="#1B68FF"/>
<path d="M8.42982 8.75457H10.6001L12.2607 7.14176H8.42422V4.78121H13.0252V3.17113H6.67682V13.1755H8.42982V8.75457Z" fill="#1B68FF"/>
<path d="M22.2045 17.3617H18.6761L13.5907 28.7551C13.5826 28.7733 13.5694 28.7887 13.5525 28.7996C13.5356 28.8105 13.5158 28.8162 13.4955 28.8162C13.4752 28.8162 13.4553 28.8105 13.4384 28.7996C13.4215 28.7887 13.4082 28.7733 13.4002 28.7551L8.74889 18.3496C8.61914 18.057 8.40455 17.8076 8.13145 17.6321C7.85835 17.4566 7.53864 17.3626 7.21151 17.3617H3.29105L0.989179 37.4578C0.982411 37.5152 0.988268 37.5733 1.00636 37.6283C1.02445 37.6833 1.05437 37.734 1.09412 37.7768C1.13387 37.8196 1.18253 37.8538 1.23686 37.8768C1.2912 37.9 1.34996 37.9115 1.40923 37.9107H4.71922C4.82109 37.9109 4.91957 37.8751 4.99632 37.8098C5.07308 37.7446 5.12289 37.6543 5.13647 37.556L6.67105 24.0858C6.67142 24.0628 6.67992 24.0404 6.69514 24.0227C6.71034 24.005 6.73133 23.9928 6.7546 23.9884C6.77788 23.9839 6.80202 23.9874 6.823 23.9982C6.84398 24.009 6.86053 24.0264 6.86988 24.0476L11.8209 35.1272C11.8841 35.2698 11.989 35.3911 12.1224 35.476C12.2559 35.561 12.412 35.6057 12.5713 35.6048H14.414C14.5737 35.6056 14.7301 35.5608 14.864 35.4759C14.9979 35.391 15.1033 35.2699 15.1672 35.1272C16.1362 32.9605 19.2221 26.0534 20.1154 24.0504C20.1243 24.0295 20.1402 24.0122 20.1604 24.0012C20.1806 23.9902 20.2041 23.986 20.2269 23.9895C20.2498 23.9929 20.2708 24.0038 20.2867 24.0202C20.3025 24.0368 20.3122 24.0579 20.3143 24.0804L21.8489 37.556C21.8625 37.6553 21.9132 37.7463 21.991 37.8116C22.069 37.877 22.1689 37.9123 22.2717 37.9107H25.5788C25.6377 37.9107 25.6959 37.8986 25.7495 37.8751C25.8031 37.8517 25.8511 37.8175 25.8903 37.7747C25.9293 37.732 25.9588 37.6816 25.9765 37.6269C25.9943 37.5723 26.0001 37.5147 25.9933 37.4578L23.8707 18.8217C23.8259 18.4212 23.6312 18.0508 23.3238 17.7815C23.0164 17.5122 22.6178 17.3627 22.2045 17.3617Z" fill="#1B68FF"/>
<path d="M65.9821 27.1395H65.3744C65.0788 27.1389 64.7883 27.2142 64.5322 27.358C64.2759 27.5017 64.0633 27.7088 63.9155 27.9582L62.4397 30.4935H65.3045C63.8426 33.3616 60.2639 35.0235 56.5618 33.5199C55.1034 32.9233 53.9439 31.7923 53.333 30.3706C51.3223 25.685 54.8087 21.1823 59.3761 21.1823C60.5288 21.1819 61.6616 21.4748 62.6625 22.032C63.6635 22.589 64.4978 23.3911 65.0832 24.3588C65.0884 24.368 65.0955 24.3761 65.104 24.3826C65.1125 24.3891 65.1222 24.394 65.1327 24.3967C65.1431 24.3995 65.1541 24.4003 65.1648 24.3989C65.1756 24.3975 65.1858 24.3941 65.1952 24.3887L68.4128 22.514C68.4318 22.5021 68.4455 22.4837 68.4512 22.4626C68.4569 22.4413 68.4542 22.4187 68.4436 22.3994C68.231 22.0496 67.9973 21.7123 67.7435 21.3896C65.1168 18.0631 60.4627 16.3466 55.5957 18.0112C54.1949 18.4917 52.9219 19.2707 51.8692 20.2913C50.8164 21.312 50.0107 22.5486 49.5105 23.9112C46.881 31.1511 52.3109 37.9108 59.3761 37.9108C62.0585 37.9116 64.6403 36.9156 66.5951 35.1256C68.5501 33.3356 69.7308 30.8865 69.8969 28.2776C69.911 28.081 69.9165 27.8819 69.9165 27.6826C69.9165 27.5326 69.9165 27.1369 69.9165 27.1369L65.9821 27.1395Z" fill="#1B68FF"/>
</g>
</g>
<defs>
<clipPath id="clip0_1_359">
<rect width="92" height="40" fill="white" transform="translate(0 0.5)"/>
</clipPath>
<clipPath id="clip1_1_359">
<rect width="92" height="40" fill="white" transform="translate(0 0.5)"/>
</clipPath>
</defs>
</svg>
