<svg width="93" height="40" viewBox="0 0 93 40" fill="none" xmlns="http://www.w3.org/2000/svg">
<g clip-path="url(#clip0_1_304)">
<g clip-path="url(#clip1_1_304)">
<path d="M90.7125 20.8993C89.7175 19.6312 88.4355 18.6041 86.9665 17.8979C85.4974 17.1916 83.881 16.8254 82.2429 16.8276C75.115 16.8276 69.6205 23.6524 72.2616 30.9628C72.7643 32.3403 73.5758 33.5913 74.6369 34.6249C75.698 35.6585 76.9821 36.4486 78.3959 36.9379C85.8974 39.5145 92.8979 34.16 92.8979 27.211C92.9023 24.9266 92.1299 22.705 90.7012 20.8938L90.7125 20.8993ZM82.2429 33.7434C80.9187 33.7413 79.6249 33.3566 78.525 32.6381C77.4251 31.9196 76.5684 30.8995 76.0632 29.7066C75.558 28.5138 75.427 27.2018 75.6867 25.9365C75.9464 24.6711 76.5852 23.5091 77.5223 22.5974C78.4594 21.6858 79.6528 21.0652 80.9517 20.8143C82.2506 20.5633 83.5967 20.6932 84.8199 21.1875C86.043 21.6819 87.0884 22.5184 87.8238 23.5915C88.5593 24.6647 88.9518 25.9261 88.9518 27.2165C88.9518 28.0746 88.7782 28.9242 88.4409 29.7168C88.1036 30.5094 87.6092 31.2294 86.9861 31.8357C86.363 32.4419 85.6233 32.9224 84.8094 33.2498C83.9955 33.5771 83.1234 33.7449 82.2429 33.7434Z" fill="#1B68FF"/>
<path d="M33.7149 17.4095C32.2401 17.9154 30.9042 18.7446 29.8102 19.8331C28.7162 20.9217 27.8934 22.2406 27.4052 23.6881C24.5433 32.1653 32.5005 39.895 41.1938 37.0784C42.6506 36.6071 43.9792 35.8212 45.0806 34.7794C46.182 33.7376 47.0277 32.4668 47.5546 31.0619C48.9699 27.2357 48.1547 23.5336 46.0458 20.855C43.3877 17.4812 38.6631 15.7322 33.7149 17.4067V17.4095ZM42.4082 30.9653L42.3941 30.9819C42.1535 31.2274 41.8987 31.4591 41.6411 31.6798C41.3835 31.9005 41.1684 32.066 40.9249 32.2481L40.8938 32.2757C40.1266 32.8495 39.3538 33.346 38.7084 33.8315C38.6986 33.8372 38.6899 33.8447 38.6829 33.8536C38.5713 33.9291 38.4645 34.0111 38.3631 34.0991C38.3523 34.1047 38.3427 34.1122 38.3348 34.1212C38.0396 34.3528 37.7735 34.6177 37.5421 34.9101C37.3173 34.6242 37.0578 34.3657 36.7693 34.1405C36.7554 34.1245 36.7392 34.1106 36.7212 34.0991C36.6193 34.0108 36.5117 33.9308 36.4042 33.8536L36.373 33.8315C35.6767 33.3074 34.8274 32.7695 34.0065 32.135L33.9329 32.0798C33.9202 32.0671 33.9059 32.056 33.8904 32.0467C33.7772 31.9557 33.6612 31.8674 33.5508 31.7708C33.2005 31.4838 32.8687 31.1761 32.5572 30.8495C32.5563 30.844 32.5563 30.8384 32.5572 30.8329C31.9143 30.0911 31.4543 29.2158 31.2124 28.2739C30.9705 27.3321 30.9532 26.3488 31.1617 25.3994C31.3702 24.45 31.799 23.5597 32.4153 22.7968C33.0316 22.034 33.819 21.4188 34.717 20.9984C34.7538 20.9819 34.7878 20.9626 34.8246 20.9488C35.6583 20.594 36.5565 20.4056 37.4662 20.3947C38.3759 20.3838 39.2785 20.5506 40.121 20.8853C41.0722 21.283 41.9127 21.8953 42.5732 22.6719C43.2338 23.4484 43.6953 24.3669 43.9198 25.3515C44.1444 26.3362 44.1254 27.3587 43.8646 28.3348C43.6037 29.3109 43.1084 30.2125 42.4196 30.9653" fill="#1B68FF"/>
<path d="M84.7057 9.16143C85.0666 9.51549 85.4956 9.79672 85.9682 9.98902C86.4426 10.1837 86.9523 10.2841 87.4671 10.2841C87.9819 10.2841 88.4915 10.1837 88.966 9.98902C89.4385 9.79672 89.8676 9.51549 90.2285 9.16143C90.588 8.80275 90.8702 8.37752 91.0584 7.91083C91.2465 7.44414 91.3368 6.94545 91.324 6.44419C91.3278 5.94356 91.2316 5.44699 91.0409 4.98212C90.849 4.51887 90.5652 4.09704 90.2058 3.74074C89.8438 3.388 89.4151 3.10696 88.9433 2.91316C88.4713 2.72254 87.965 2.62526 87.4541 2.62698C86.9431 2.6287 86.4376 2.72939 85.9669 2.92318C85.4962 3.11698 85.0697 3.40002 84.7123 3.75585C84.3548 4.11168 84.0735 4.5332 83.8847 4.99591C83.6922 5.45833 83.596 5.95346 83.6017 6.45247C83.5888 6.95373 83.6792 7.45242 83.8673 7.9191C84.0555 8.38579 84.3376 8.81102 84.6972 9.16971L84.7057 9.16143ZM87.443 3.46212C89.1018 3.46212 90.3785 4.77247 90.3785 6.45247C90.3785 8.13247 89.1018 9.45109 87.443 9.45109C85.7842 9.45109 84.5613 8.11867 84.5613 6.44971C84.5613 4.78074 85.7955 3.45385 87.4515 3.45385" fill="#1B68FF"/>
<path d="M87.0043 6.92689H87.5195L88.1876 8.34207H89.201L88.4565 6.96276C88.4208 6.88335 88.3742 6.80909 88.3178 6.74207V6.72C88.5314 6.65433 88.7172 6.52263 88.8471 6.34482C88.9719 6.16435 89.0343 5.94983 89.0255 5.73241C89.0332 5.56708 89.0048 5.40203 88.9421 5.24822C88.8794 5.09441 88.7838 4.95536 88.6617 4.8403C88.5396 4.72525 88.3938 4.63681 88.234 4.58087C88.0742 4.52494 87.9039 4.50277 87.7346 4.51586H86.0984V8.3531H87.0128L87.0043 6.92689ZM87.0043 5.15586H87.5195C87.5973 5.14787 87.676 5.15828 87.7488 5.1862C87.8204 5.21379 87.8851 5.25614 87.9384 5.31034C87.9923 5.36425 88.0329 5.42932 88.0573 5.50069C88.0831 5.57138 88.0909 5.64711 88.08 5.72138C88.0887 5.79769 88.08 5.87493 88.0545 5.94758C88.0281 6.01947 87.9866 6.08522 87.9328 6.14069C87.8785 6.19502 87.8128 6.23735 87.7403 6.26482C87.6664 6.29237 87.5871 6.30367 87.5082 6.29793H87.0043V5.15586Z" fill="#1B68FF"/>
<path d="M5.03662 5.4043H3.33533V12.5933H5.03662V5.4043Z" fill="#1B68FF"/>
<path d="M16.1191 8.80567H17.9845L20.0085 12.5961H22.0693L19.7566 8.40291C20.2986 8.15549 20.7524 7.75606 21.0601 7.25576C21.3677 6.75545 21.5151 6.17706 21.4834 5.59463C21.4834 4.56015 21.1578 3.77394 20.5181 3.25532C19.8783 2.7367 18.998 2.48291 17.877 2.48291H14.3045V12.5961H16.1219L16.1191 8.80567ZM16.1191 3.99739H17.7015C18.2259 3.95808 18.7472 4.10615 19.1678 4.41394C19.3329 4.57108 19.4611 4.76118 19.5437 4.97117C19.6263 5.18116 19.6612 5.40609 19.6462 5.63049C19.6585 5.85329 19.6213 6.07605 19.5373 6.2836C19.4533 6.49115 19.3244 6.67862 19.1593 6.83325C18.8338 7.12291 18.3271 7.26911 17.6562 7.26911H16.1191V3.99739Z" fill="#1B68FF"/>
<path d="M29.9898 10.9657H25.1152V8.12704H28.8405V6.4967H25.1152V4.11049H29.8596V2.48291H23.3262V12.5961H29.9898V10.9657Z" fill="#1B68FF"/>
<path d="M38.0688 10.9657H33.1914V8.12704H36.9195V6.4967H33.1914V4.11049H37.9386V2.48291H31.4052V12.5961H38.0688V10.9657Z" fill="#1B68FF"/>
<path d="M5.03662 2.48291H3.33533V3.68291L5.03662 5.24153V2.48291Z" fill="#1B68FF"/>
<path d="M8.52148 8.12704H10.7153L12.394 6.4967H8.51582V4.11049H13.1668V2.48291H6.74942V12.5961H8.52148V8.12704Z" fill="#1B68FF"/>
<path d="M22.4459 16.8276H18.8791L13.7384 28.3448C13.7303 28.3632 13.7169 28.3788 13.6998 28.3898C13.6827 28.4008 13.6627 28.4066 13.6422 28.4066C13.6217 28.4066 13.6016 28.4008 13.5845 28.3898C13.5674 28.3788 13.554 28.3632 13.5459 28.3448L8.84401 17.8262C8.71285 17.5304 8.49592 17.2783 8.21986 17.1009C7.94379 16.9235 7.6206 16.8285 7.28992 16.8276H3.32684L0.999951 37.1421C0.993109 37.2001 0.99903 37.2589 1.01732 37.3145C1.03561 37.3701 1.06585 37.4213 1.10603 37.4646C1.14621 37.5079 1.1954 37.5424 1.25032 37.5657C1.30525 37.5891 1.36465 37.6008 1.42457 37.6H4.77054C4.87351 37.6002 4.97306 37.564 5.05065 37.498C5.12824 37.432 5.17859 37.3408 5.19232 37.2414L6.74358 23.6248C6.74396 23.6015 6.75255 23.5789 6.76793 23.561C6.7833 23.5431 6.80452 23.5308 6.82804 23.5263C6.85157 23.5218 6.87597 23.5253 6.89718 23.5362C6.91839 23.5471 6.93512 23.5647 6.94457 23.5862L11.9494 34.7862C12.0133 34.9303 12.1193 35.053 12.2542 35.1388C12.3891 35.2247 12.5469 35.2699 12.708 35.269H14.5707C14.7321 35.2698 14.8902 35.2245 15.0256 35.1387C15.1609 35.0529 15.2675 34.9304 15.3321 34.7862C16.3116 32.5959 19.4311 25.6138 20.3341 23.589C20.3431 23.5679 20.3591 23.5504 20.3796 23.5393C20.4 23.5281 20.4237 23.5239 20.4468 23.5274C20.4699 23.5309 20.4912 23.5419 20.5072 23.5585C20.5232 23.5752 20.533 23.5966 20.5351 23.6193L22.0864 37.2414C22.1002 37.3418 22.1514 37.4338 22.2301 37.4998C22.3089 37.5659 22.4099 37.6016 22.5138 37.6H25.8569C25.9164 37.6 25.9752 37.5877 26.0294 37.564C26.0836 37.5403 26.1321 37.5057 26.1717 37.4625C26.2112 37.4193 26.241 37.3684 26.2589 37.3131C26.2769 37.2579 26.2827 37.1996 26.2759 37.1421L24.1302 18.3035C24.0849 17.8986 23.8881 17.5242 23.5773 17.252C23.2666 16.9797 22.8637 16.8286 22.4459 16.8276Z" fill="#1B68FF"/>
<path d="M66.6993 26.7116H66.085C65.7862 26.711 65.4925 26.7871 65.2336 26.9324C64.9746 27.0777 64.7596 27.287 64.6102 27.5392L63.1184 30.102H66.0143C64.5366 33.0013 60.9189 34.6813 57.1766 33.1613C55.7024 32.5582 54.5303 31.4149 53.9127 29.9778C51.8802 25.2413 55.4045 20.6896 60.0215 20.6896C61.1867 20.6892 62.3318 20.9853 63.3436 21.5485C64.3555 22.1116 65.1989 22.9224 65.7906 23.9006C65.7959 23.9099 65.8031 23.9181 65.8117 23.9247C65.8203 23.9313 65.8301 23.9362 65.8407 23.939C65.8512 23.9418 65.8623 23.9426 65.8731 23.9412C65.884 23.9398 65.8944 23.9363 65.9039 23.9309L69.1564 22.0358C69.1756 22.0238 69.1895 22.0052 69.1952 21.9838C69.201 21.9623 69.1983 21.9395 69.1876 21.9199C68.9727 21.5663 68.7364 21.2254 68.4799 20.8992C65.8246 17.5365 61.1199 15.8013 56.2 17.484C54.784 17.9698 53.4971 18.7572 52.433 19.7889C51.3688 20.8207 50.5543 22.0708 50.0487 23.4482C47.3906 30.7668 52.8795 37.5999 60.0215 37.5999C62.7331 37.6008 65.3429 36.5939 67.319 34.7845C69.2952 32.975 70.4888 30.4993 70.6567 27.862C70.6709 27.6633 70.6765 27.462 70.6765 27.2606C70.6765 27.1089 70.6765 26.7089 70.6765 26.7089L66.6993 26.7116Z" fill="#1B68FF"/>
</g>
</g>
<defs>
<clipPath id="clip0_1_304">
<rect width="93" height="40" fill="white"/>
</clipPath>
<clipPath id="clip1_1_304">
<rect width="93" height="40" fill="white"/>
</clipPath>
</defs>
</svg>
